# xmcd
#
# Track frame offsets:
#	150
#	79155
#	152720
#
# Disc length: 3041 seconds
#
# Revision: 1
# Processed by: cddbd v1.5.1PL0 Copyright (c) Steve Scherf et al.
# Submitted via: CDex 1.50Beta5
#
DISCID=180bdf03
DTITLE=川澄綾子・寺田はるひ・他 - ONE〜輝く季節へ〜DRAMA CD triplet story
DYEAR=1900
DGENRE=Anime
TTITLE0=第1話 瑞佳・留美・繭・耕平
TTITLE1=第2話 みさき・澪・雪見
TTITLE2=第3話 茜・詩子
EXTD=
EXTT0=
EXTT1=
EXTT2=
PLAYORDER=
